<?xml version="1.0" encoding="UTF-8" standalone="no"?>
<!DOCTYPE svg PUBLIC "-//W3C//DTD SVG 1.1//EN" "http://www.w3.org/Graphics/SVG/1.1/DTD/svg11.dtd">
<svg width="100%" height="100%" viewBox="0 0 10 270" version="1.1" xmlns="http://www.w3.org/2000/svg" xmlns:xlink="http://www.w3.org/1999/xlink" xml:space="preserve" xmlns:serif="http://www.serif.com/" style="fill-rule:evenodd;clip-rule:evenodd;stroke-linejoin:round;stroke-miterlimit:2;">
    <g transform="matrix(1,0,0,1,0,-199)">
        <g id="Mesa-de-trabajo4" serif:id="Mesa de trabajo4" transform="matrix(0.666667,0,0,0.994204,54,2.14758)">
            <rect x="-81" y="198" width="15" height="271.574" style="fill:none;"/>
            <clipPath id="_clip1">
                <rect x="-81" y="198" width="15" height="271.574"/>
            </clipPath>
            <g clip-path="url(#_clip1)">
                <g transform="matrix(1.5,0,0,1.00583,-204.373,-6.45735)">
                    <path d="M92.249,205.772C92.249,204.393 91.128,203.272 89.749,203.272L84.749,203.272C83.369,203.272 82.249,204.393 82.249,205.772L82.249,210.772C82.249,212.152 83.369,213.272 84.749,213.272L89.749,213.272C91.128,213.272 92.249,212.152 92.249,210.772L92.249,205.772Z" style="fill:rgb(251,216,0);"/>
                </g>
                <g transform="matrix(1.5,0,0,1.00583,-204.373,3.60094)">
                    <path d="M92.249,205.772C92.249,204.393 91.128,203.272 89.749,203.272L84.749,203.272C83.369,203.272 82.249,204.393 82.249,205.772L82.249,210.772C82.249,212.152 83.369,213.272 84.749,213.272L89.749,213.272C91.128,213.272 92.249,212.152 92.249,210.772L92.249,205.772Z" style="fill:rgb(255,190,0);"/>
                </g>
                <g transform="matrix(1.5,0,0,1.00583,-204.373,13.6592)">
                    <path d="M92.249,205.772C92.249,204.393 91.128,203.272 89.749,203.272L84.749,203.272C83.369,203.272 82.249,204.393 82.249,205.772L82.249,210.772C82.249,212.152 83.369,213.272 84.749,213.272L89.749,213.272C91.128,213.272 92.249,212.152 92.249,210.772L92.249,205.772Z" style="fill:rgb(255,161,0);"/>
                </g>
                <g transform="matrix(1.5,0,0,1.00583,-204.373,23.7175)">
                    <path d="M92.249,205.772C92.249,204.393 91.128,203.272 89.749,203.272L84.749,203.272C83.369,203.272 82.249,204.393 82.249,205.772L82.249,210.772C82.249,212.152 83.369,213.272 84.749,213.272L89.749,213.272C91.128,213.272 92.249,212.152 92.249,210.772L92.249,205.772Z" style="fill:rgb(255,134,0);"/>
                </g>
                <g transform="matrix(1.5,0,0,1.00583,-204.373,33.7758)">
                    <path d="M92.249,205.772C92.249,204.393 91.128,203.272 89.749,203.272L84.749,203.272C83.369,203.272 82.249,204.393 82.249,205.772L82.249,210.772C82.249,212.152 83.369,213.272 84.749,213.272L89.749,213.272C91.128,213.272 92.249,212.152 92.249,210.772L92.249,205.772Z" style="fill:rgb(255,93,0);"/>
                </g>
                <g transform="matrix(1.5,0,0,1.00583,-204.373,43.8341)">
                    <path d="M92.249,205.772C92.249,204.393 91.128,203.272 89.749,203.272L84.749,203.272C83.369,203.272 82.249,204.393 82.249,205.772L82.249,210.772C82.249,212.152 83.369,213.272 84.749,213.272L89.749,213.272C91.128,213.272 92.249,212.152 92.249,210.772L92.249,205.772Z" style="fill:rgb(248,68,0);"/>
                </g>
                <g transform="matrix(1.5,0,0,1.00583,-204.373,53.8924)">
                    <path d="M92.249,205.772C92.249,204.393 91.128,203.272 89.749,203.272L84.749,203.272C83.369,203.272 82.249,204.393 82.249,205.772L82.249,210.772C82.249,212.152 83.369,213.272 84.749,213.272L89.749,213.272C91.128,213.272 92.249,212.152 92.249,210.772L92.249,205.772Z" style="fill:rgb(230,47,0);"/>
                </g>
                <g transform="matrix(1.5,0,0,1.00583,-204.373,63.9507)">
                    <path d="M92.249,205.772C92.249,204.393 91.128,203.272 89.749,203.272L84.749,203.272C83.369,203.272 82.249,204.393 82.249,205.772L82.249,210.772C82.249,212.152 83.369,213.272 84.749,213.272L89.749,213.272C91.128,213.272 92.249,212.152 92.249,210.772L92.249,205.772Z" style="fill:rgb(206,0,69);"/>
                </g>
                <g transform="matrix(1.5,0,0,1.00583,-204.373,74.009)">
                    <path d="M92.249,205.772C92.249,204.393 91.128,203.272 89.749,203.272L84.749,203.272C83.369,203.272 82.249,204.393 82.249,205.772L82.249,210.772C82.249,212.152 83.369,213.272 84.749,213.272L89.749,213.272C91.128,213.272 92.249,212.152 92.249,210.772L92.249,205.772Z" style="fill:rgb(213,21,112);"/>
                </g>
                <g transform="matrix(1.5,0,0,1.00583,-204.373,84.0673)">
                    <path d="M92.249,205.772C92.249,204.393 91.128,203.272 89.749,203.272L84.749,203.272C83.369,203.272 82.249,204.393 82.249,205.772L82.249,210.772C82.249,212.152 83.369,213.272 84.749,213.272L89.749,213.272C91.128,213.272 92.249,212.152 92.249,210.772L92.249,205.772Z" style="fill:rgb(152,43,149);"/>
                </g>
                <g transform="matrix(1.5,0,0,1.00583,-204.373,94.1256)">
                    <path d="M92.249,205.772C92.249,204.393 91.128,203.272 89.749,203.272L84.749,203.272C83.369,203.272 82.249,204.393 82.249,205.772L82.249,210.772C82.249,212.152 83.369,213.272 84.749,213.272L89.749,213.272C91.128,213.272 92.249,212.152 92.249,210.772L92.249,205.772Z" style="fill:rgb(124,23,151);"/>
                </g>
                <g transform="matrix(1.5,0,0,1.00583,-204.373,104.184)">
                    <path d="M92.249,205.772C92.249,204.393 91.128,203.272 89.749,203.272L84.749,203.272C83.369,203.272 82.249,204.393 82.249,205.772L82.249,210.772C82.249,212.152 83.369,213.272 84.749,213.272L89.749,213.272C91.128,213.272 92.249,212.152 92.249,210.772L92.249,205.772Z" style="fill:rgb(76,0,143);"/>
                </g>
                <g transform="matrix(1.5,0,0,1.00583,-204.373,114.242)">
                    <path d="M92.249,205.772C92.249,204.393 91.128,203.272 89.749,203.272L84.749,203.272C83.369,203.272 82.249,204.393 82.249,205.772L82.249,210.772C82.249,212.152 83.369,213.272 84.749,213.272L89.749,213.272C91.128,213.272 92.249,212.152 92.249,210.772L92.249,205.772Z" style="fill:rgb(139,106,206);"/>
                </g>
                <g transform="matrix(1.5,0,0,1.00583,-204.373,124.301)">
                    <path d="M92.249,205.772C92.249,204.393 91.128,203.272 89.749,203.272L84.749,203.272C83.369,203.272 82.249,204.393 82.249,205.772L82.249,210.772C82.249,212.152 83.369,213.272 84.749,213.272L89.749,213.272C91.128,213.272 92.249,212.152 92.249,210.772L92.249,205.772Z" style="fill:rgb(89,93,199);"/>
                </g>
                <g transform="matrix(1.5,0,0,1.00583,-204.373,134.359)">
                    <path d="M92.249,205.772C92.249,204.393 91.128,203.272 89.749,203.272L84.749,203.272C83.369,203.272 82.249,204.393 82.249,205.772L82.249,210.772C82.249,212.152 83.369,213.272 84.749,213.272L89.749,213.272C91.128,213.272 92.249,212.152 92.249,210.772L92.249,205.772Z" style="fill:rgb(44,103,201);"/>
                </g>
                <g transform="matrix(1.5,0,0,1.00583,-204.373,144.417)">
                    <path d="M92.249,205.772C92.249,204.393 91.128,203.272 89.749,203.272L84.749,203.272C83.369,203.272 82.249,204.393 82.249,205.772L82.249,210.772C82.249,212.152 83.369,213.272 84.749,213.272L89.749,213.272C91.128,213.272 92.249,212.152 92.249,210.772L92.249,205.772Z" style="fill:rgb(0,84,163);"/>
                </g>
                <g transform="matrix(1.5,0,0,1.00583,-204.373,154.475)">
                    <path d="M92.249,205.772C92.249,204.393 91.128,203.272 89.749,203.272L84.749,203.272C83.369,203.272 82.249,204.393 82.249,205.772L82.249,210.772C82.249,212.152 83.369,213.272 84.749,213.272L89.749,213.272C91.128,213.272 92.249,212.152 92.249,210.772L92.249,205.772Z" style="fill:rgb(6,132,149);"/>
                </g>
                <g transform="matrix(1.5,0,0,1.00583,-204.373,164.534)">
                    <path d="M92.249,205.772C92.249,204.393 91.128,203.272 89.749,203.272L84.749,203.272C83.369,203.272 82.249,204.393 82.249,205.772L82.249,210.772C82.249,212.152 83.369,213.272 84.749,213.272L89.749,213.272C91.128,213.272 92.249,212.152 92.249,210.772L92.249,205.772Z" style="fill:rgb(0,146,131);"/>
                </g>
                <g transform="matrix(1.5,0,0,1.00583,-204.373,174.592)">
                    <path d="M92.249,205.772C92.249,204.393 91.128,203.272 89.749,203.272L84.749,203.272C83.369,203.272 82.249,204.393 82.249,205.772L82.249,210.772C82.249,212.152 83.369,213.272 84.749,213.272L89.749,213.272C91.128,213.272 92.249,212.152 92.249,210.772L92.249,205.772Z" style="fill:rgb(0,132,85);"/>
                </g>
                <g transform="matrix(1.5,0,0,1.00583,-204.373,184.65)">
                    <path d="M92.249,205.772C92.249,204.393 91.128,203.272 89.749,203.272L84.749,203.272C83.369,203.272 82.249,204.393 82.249,205.772L82.249,210.772C82.249,212.152 83.369,213.272 84.749,213.272L89.749,213.272C91.128,213.272 92.249,212.152 92.249,210.772L92.249,205.772Z" style="fill:rgb(40,113,33);"/>
                </g>
                <g transform="matrix(1.5,0,0,1.00583,-204.373,194.709)">
                    <path d="M92.249,205.772C92.249,204.393 91.128,203.272 89.749,203.272L84.749,203.272C83.369,203.272 82.249,204.393 82.249,205.772L82.249,210.772C82.249,212.152 83.369,213.272 84.749,213.272L89.749,213.272C91.128,213.272 92.249,212.152 92.249,210.772L92.249,205.772Z" style="fill:rgb(84,171,0);"/>
                </g>
                <g transform="matrix(1.5,0,0,1.00583,-204.373,204.767)">
                    <path d="M92.249,205.772C92.249,204.393 91.128,203.272 89.749,203.272L84.749,203.272C83.369,203.272 82.249,204.393 82.249,205.772L82.249,210.772C82.249,212.152 83.369,213.272 84.749,213.272L89.749,213.272C91.128,213.272 92.249,212.152 92.249,210.772L92.249,205.772Z" style="fill:rgb(189,227,101);"/>
                </g>
                <g transform="matrix(1.5,0,0,1.00583,-204.373,214.825)">
                    <path d="M92.249,205.772C92.249,204.393 91.128,203.272 89.749,203.272L84.749,203.272C83.369,203.272 82.249,204.393 82.249,205.772L82.249,210.772C82.249,212.152 83.369,213.272 84.749,213.272L89.749,213.272C91.128,213.272 92.249,212.152 92.249,210.772L92.249,205.772Z" style="fill:rgb(218,231,155);"/>
                </g>
                <g transform="matrix(1.5,0,0,1.00583,-204.373,224.883)">
                    <path d="M92.249,205.772C92.249,204.393 91.128,203.272 89.749,203.272L84.749,203.272C83.369,203.272 82.249,204.393 82.249,205.772L82.249,210.772C82.249,212.152 83.369,213.272 84.749,213.272L89.749,213.272C91.128,213.272 92.249,212.152 92.249,210.772L92.249,205.772Z" style="fill:rgb(207,213,107);"/>
                </g>
                <g transform="matrix(1.5,0,0,1.00583,-204.373,234.942)">
                    <path d="M92.249,205.772C92.249,204.393 91.128,203.272 89.749,203.272L84.749,203.272C83.369,203.272 82.249,204.393 82.249,205.772L82.249,210.772C82.249,212.152 83.369,213.272 84.749,213.272L89.749,213.272C91.128,213.272 92.249,212.152 92.249,210.772L92.249,205.772Z" style="fill:rgb(191,164,99);"/>
                </g>
                <g transform="matrix(1.5,0,0,1.00583,-204.373,245)">
                    <path d="M92.249,205.772C92.249,204.393 91.128,203.272 89.749,203.272L84.749,203.272C83.369,203.272 82.249,204.393 82.249,205.772L82.249,210.772C82.249,212.152 83.369,213.272 84.749,213.272L89.749,213.272C91.128,213.272 92.249,212.152 92.249,210.772L92.249,205.772Z" style="fill:rgb(192,136,47);"/>
                </g>
                <g transform="matrix(1.5,0,0,1.00583,-204.373,255.058)">
                    <path d="M92.249,205.772C92.249,204.393 91.128,203.272 89.749,203.272L84.749,203.272C83.369,203.272 82.249,204.393 82.249,205.772L82.249,210.772C82.249,212.152 83.369,213.272 84.749,213.272L89.749,213.272C91.128,213.272 92.249,212.152 92.249,210.772L92.249,205.772Z" style="fill:rgb(111,68,31);"/>
                </g>
            </g>
        </g>
    </g>
</svg>
